<mxfile host="app.diagrams.net" modified="2022-05-19T04:11:20.417Z" agent="5.0 (Windows NT 10.0; Win64; x64) AppleWebKit/537.36 (KHTML, like Gecko) Chrome/101.0.4951.67 Safari/537.36" etag="mSNEHaL3LCXvAXkwk12K" version="18.0.7" type="github">
  <diagram id="2AaTSGa9Z8BQQ-PvD9Bo" name="Page-1">
    <mxGraphModel dx="2062" dy="786" grid="1" gridSize="10" guides="1" tooltips="1" connect="1" arrows="1" fold="1" page="1" pageScale="1" pageWidth="850" pageHeight="1100" math="0" shadow="0">
      <root>
        <mxCell id="0" />
        <mxCell id="1" parent="0" />
        <mxCell id="jXdwk9JwkKEWe-Lg2wPp-1" value="CSIRT ActivityÂ " style="swimlane;childLayout=stackLayout;resizeParent=1;resizeParentMax=0;startSize=20;fillColor=#fff2cc;strokeColor=#d6b656;" vertex="1" parent="1">
          <mxGeometry x="40" y="40" width="760" height="750" as="geometry" />
        </mxCell>
        <mxCell id="jXdwk9JwkKEWe-Lg2wPp-2" value="User" style="swimlane;startSize=20;fillColor=#f8cecc;strokeColor=#b85450;" vertex="1" parent="jXdwk9JwkKEWe-Lg2wPp-1">
          <mxGeometry y="20" width="360" height="730" as="geometry" />
        </mxCell>
        <mxCell id="jXdwk9JwkKEWe-Lg2wPp-24" style="edgeStyle=orthogonalEdgeStyle;rounded=0;orthogonalLoop=1;jettySize=auto;html=1;exitX=0.5;exitY=1;exitDx=0;exitDy=0;entryX=0.5;entryY=0;entryDx=0;entryDy=0;entryPerimeter=0;" edge="1" parent="jXdwk9JwkKEWe-Lg2wPp-2" source="jXdwk9JwkKEWe-Lg2wPp-5" target="jXdwk9JwkKEWe-Lg2wPp-6">
          <mxGeometry relative="1" as="geometry" />
        </mxCell>
        <mxCell id="jXdwk9JwkKEWe-Lg2wPp-5" value="" style="shape=ellipse;html=1;fillColor=#000000;strokeWidth=2;verticalLabelPosition=bottom;verticalAlignment=top;perimeter=ellipsePerimeter;" vertex="1" parent="jXdwk9JwkKEWe-Lg2wPp-2">
          <mxGeometry x="160" y="30" width="40" height="40" as="geometry" />
        </mxCell>
        <mxCell id="jXdwk9JwkKEWe-Lg2wPp-6" value="Pilih Menu CSIRT" style="points=[[0.25,0,0],[0.5,0,0],[0.75,0,0],[1,0.25,0],[1,0.5,0],[1,0.75,0],[0.75,1,0],[0.5,1,0],[0.25,1,0],[0,0.75,0],[0,0.5,0],[0,0.25,0]];shape=mxgraph.bpmn.task;whiteSpace=wrap;rectStyle=rounded;size=10;bpmnShapeType=call;" vertex="1" parent="jXdwk9JwkKEWe-Lg2wPp-2">
          <mxGeometry x="90" y="100" width="180" height="50" as="geometry" />
        </mxCell>
        <mxCell id="jXdwk9JwkKEWe-Lg2wPp-27" style="edgeStyle=orthogonalEdgeStyle;rounded=0;orthogonalLoop=1;jettySize=auto;html=1;exitX=0.5;exitY=1;exitDx=0;exitDy=0;exitPerimeter=0;entryX=0.5;entryY=0;entryDx=0;entryDy=0;" edge="1" parent="jXdwk9JwkKEWe-Lg2wPp-2" source="jXdwk9JwkKEWe-Lg2wPp-11" target="jXdwk9JwkKEWe-Lg2wPp-12">
          <mxGeometry relative="1" as="geometry" />
        </mxCell>
        <mxCell id="jXdwk9JwkKEWe-Lg2wPp-11" value="Pilih Create / Update / Delete" style="points=[[0.25,0,0],[0.5,0,0],[0.75,0,0],[1,0.25,0],[1,0.5,0],[1,0.75,0],[0.75,1,0],[0.5,1,0],[0.25,1,0],[0,0.75,0],[0,0.5,0],[0,0.25,0]];shape=mxgraph.bpmn.task;whiteSpace=wrap;rectStyle=rounded;size=10;bpmnShapeType=call;" vertex="1" parent="jXdwk9JwkKEWe-Lg2wPp-2">
          <mxGeometry x="40" y="180" width="280" height="50" as="geometry" />
        </mxCell>
        <mxCell id="jXdwk9JwkKEWe-Lg2wPp-46" style="edgeStyle=orthogonalEdgeStyle;rounded=0;orthogonalLoop=1;jettySize=auto;html=1;exitX=0;exitY=0.5;exitDx=0;exitDy=0;entryX=0;entryY=0.5;entryDx=0;entryDy=0;entryPerimeter=0;fontSize=14;" edge="1" parent="jXdwk9JwkKEWe-Lg2wPp-2" source="jXdwk9JwkKEWe-Lg2wPp-12" target="jXdwk9JwkKEWe-Lg2wPp-17">
          <mxGeometry relative="1" as="geometry">
            <Array as="points">
              <mxPoint x="30" y="310" />
              <mxPoint x="30" y="560" />
            </Array>
          </mxGeometry>
        </mxCell>
        <mxCell id="jXdwk9JwkKEWe-Lg2wPp-53" style="edgeStyle=orthogonalEdgeStyle;rounded=0;orthogonalLoop=1;jettySize=auto;html=1;exitX=1;exitY=0.5;exitDx=0;exitDy=0;entryX=0.5;entryY=0;entryDx=0;entryDy=0;entryPerimeter=0;fontSize=14;" edge="1" parent="jXdwk9JwkKEWe-Lg2wPp-2" source="jXdwk9JwkKEWe-Lg2wPp-12" target="jXdwk9JwkKEWe-Lg2wPp-14">
          <mxGeometry relative="1" as="geometry" />
        </mxCell>
        <mxCell id="jXdwk9JwkKEWe-Lg2wPp-54" style="edgeStyle=orthogonalEdgeStyle;rounded=0;orthogonalLoop=1;jettySize=auto;html=1;exitX=0.5;exitY=1;exitDx=0;exitDy=0;entryX=0.5;entryY=0;entryDx=0;entryDy=0;entryPerimeter=0;fontSize=14;" edge="1" parent="jXdwk9JwkKEWe-Lg2wPp-2" source="jXdwk9JwkKEWe-Lg2wPp-12" target="jXdwk9JwkKEWe-Lg2wPp-28">
          <mxGeometry relative="1" as="geometry" />
        </mxCell>
        <mxCell id="jXdwk9JwkKEWe-Lg2wPp-12" value="" style="rhombus;whiteSpace=wrap;html=1;" vertex="1" parent="jXdwk9JwkKEWe-Lg2wPp-2">
          <mxGeometry x="140" y="270" width="80" height="80" as="geometry" />
        </mxCell>
        <mxCell id="jXdwk9JwkKEWe-Lg2wPp-14" value="Update Data" style="points=[[0.25,0,0],[0.5,0,0],[0.75,0,0],[1,0.25,0],[1,0.5,0],[1,0.75,0],[0.75,1,0],[0.5,1,0],[0.25,1,0],[0,0.75,0],[0,0.5,0],[0,0.25,0]];shape=mxgraph.bpmn.task;whiteSpace=wrap;rectStyle=rounded;size=10;bpmnShapeType=call;" vertex="1" parent="jXdwk9JwkKEWe-Lg2wPp-2">
          <mxGeometry x="220" y="350" width="120" height="40" as="geometry" />
        </mxCell>
        <mxCell id="jXdwk9JwkKEWe-Lg2wPp-17" value="Create Data Baru" style="points=[[0.25,0,0],[0.5,0,0],[0.75,0,0],[1,0.25,0],[1,0.5,0],[1,0.75,0],[0.75,1,0],[0.5,1,0],[0.25,1,0],[0,0.75,0],[0,0.5,0],[0,0.25,0]];shape=mxgraph.bpmn.task;whiteSpace=wrap;rectStyle=rounded;size=10;bpmnShapeType=call;" vertex="1" parent="jXdwk9JwkKEWe-Lg2wPp-2">
          <mxGeometry x="120" y="540" width="120" height="40" as="geometry" />
        </mxCell>
        <mxCell id="jXdwk9JwkKEWe-Lg2wPp-28" value="Konfirmasi Delete Data" style="points=[[0.25,0,0],[0.5,0,0],[0.75,0,0],[1,0.25,0],[1,0.5,0],[1,0.75,0],[0.75,1,0],[0.5,1,0],[0.25,1,0],[0,0.75,0],[0,0.5,0],[0,0.25,0]];shape=mxgraph.bpmn.task;whiteSpace=wrap;rectStyle=rounded;size=10;bpmnShapeType=call;" vertex="1" parent="jXdwk9JwkKEWe-Lg2wPp-2">
          <mxGeometry x="120" y="430" width="120" height="40" as="geometry" />
        </mxCell>
        <mxCell id="jXdwk9JwkKEWe-Lg2wPp-39" value="&lt;b&gt;&lt;font style=&quot;font-size: 14px;&quot;&gt;Update&lt;/font&gt;&lt;/b&gt;" style="text;html=1;strokeColor=none;fillColor=none;align=center;verticalAlign=middle;whiteSpace=wrap;rounded=0;" vertex="1" parent="jXdwk9JwkKEWe-Lg2wPp-2">
          <mxGeometry x="220" y="280" width="60" height="30" as="geometry" />
        </mxCell>
        <mxCell id="jXdwk9JwkKEWe-Lg2wPp-40" value="&lt;b&gt;&lt;font style=&quot;font-size: 14px;&quot;&gt;Create&lt;/font&gt;&lt;/b&gt;" style="text;html=1;strokeColor=none;fillColor=none;align=center;verticalAlign=middle;whiteSpace=wrap;rounded=0;" vertex="1" parent="jXdwk9JwkKEWe-Lg2wPp-2">
          <mxGeometry x="80" y="280" width="60" height="30" as="geometry" />
        </mxCell>
        <mxCell id="jXdwk9JwkKEWe-Lg2wPp-41" value="&lt;b&gt;&lt;font style=&quot;font-size: 14px;&quot;&gt;Delete&lt;/font&gt;&lt;/b&gt;" style="text;html=1;strokeColor=none;fillColor=none;align=center;verticalAlign=middle;whiteSpace=wrap;rounded=0;" vertex="1" parent="jXdwk9JwkKEWe-Lg2wPp-2">
          <mxGeometry x="120" y="360" width="60" height="30" as="geometry" />
        </mxCell>
        <mxCell id="jXdwk9JwkKEWe-Lg2wPp-4" value="Sistem" style="swimlane;startSize=20;fillColor=#ffe6cc;strokeColor=#d79b00;rounded=0;shadow=0;sketch=0;glass=0;swimlaneLine=1;" vertex="1" parent="jXdwk9JwkKEWe-Lg2wPp-1">
          <mxGeometry x="360" y="20" width="400" height="730" as="geometry" />
        </mxCell>
        <mxCell id="jXdwk9JwkKEWe-Lg2wPp-10" value="Menampilkan Menu CSIRT" style="shape=rect;html=1;rounded=1;whiteSpace=wrap;align=center;" vertex="1" parent="jXdwk9JwkKEWe-Lg2wPp-4">
          <mxGeometry x="120" y="100" width="160" height="50" as="geometry" />
        </mxCell>
        <mxCell id="jXdwk9JwkKEWe-Lg2wPp-50" style="edgeStyle=orthogonalEdgeStyle;rounded=0;orthogonalLoop=1;jettySize=auto;html=1;exitX=0.5;exitY=1;exitDx=0;exitDy=0;entryX=0.5;entryY=0;entryDx=0;entryDy=0;fontSize=14;" edge="1" parent="jXdwk9JwkKEWe-Lg2wPp-4" source="jXdwk9JwkKEWe-Lg2wPp-13" target="jXdwk9JwkKEWe-Lg2wPp-15">
          <mxGeometry relative="1" as="geometry" />
        </mxCell>
        <mxCell id="jXdwk9JwkKEWe-Lg2wPp-13" value="Cek Data" style="shape=rect;html=1;rounded=1;whiteSpace=wrap;align=center;" vertex="1" parent="jXdwk9JwkKEWe-Lg2wPp-4">
          <mxGeometry x="120" y="390" width="160" height="40" as="geometry" />
        </mxCell>
        <mxCell id="jXdwk9JwkKEWe-Lg2wPp-52" style="edgeStyle=orthogonalEdgeStyle;rounded=0;orthogonalLoop=1;jettySize=auto;html=1;exitX=0.5;exitY=1;exitDx=0;exitDy=0;entryX=0.5;entryY=0;entryDx=0;entryDy=0;entryPerimeter=0;fontSize=14;" edge="1" parent="jXdwk9JwkKEWe-Lg2wPp-4" source="jXdwk9JwkKEWe-Lg2wPp-15" target="jXdwk9JwkKEWe-Lg2wPp-35">
          <mxGeometry relative="1" as="geometry" />
        </mxCell>
        <mxCell id="jXdwk9JwkKEWe-Lg2wPp-15" value="Simpan Data" style="shape=rect;html=1;rounded=1;whiteSpace=wrap;align=center;" vertex="1" parent="jXdwk9JwkKEWe-Lg2wPp-4">
          <mxGeometry x="120" y="540" width="160" height="40" as="geometry" />
        </mxCell>
        <mxCell id="jXdwk9JwkKEWe-Lg2wPp-35" value="" style="html=1;shape=mxgraph.sysml.actFinal;strokeWidth=2;verticalLabelPosition=bottom;verticalAlignment=top;" vertex="1" parent="jXdwk9JwkKEWe-Lg2wPp-4">
          <mxGeometry x="180" y="620" width="40" height="40" as="geometry" />
        </mxCell>
        <mxCell id="jXdwk9JwkKEWe-Lg2wPp-25" style="edgeStyle=orthogonalEdgeStyle;rounded=0;orthogonalLoop=1;jettySize=auto;html=1;exitX=1;exitY=0.5;exitDx=0;exitDy=0;exitPerimeter=0;entryX=0;entryY=0.5;entryDx=0;entryDy=0;" edge="1" parent="jXdwk9JwkKEWe-Lg2wPp-1" source="jXdwk9JwkKEWe-Lg2wPp-6" target="jXdwk9JwkKEWe-Lg2wPp-10">
          <mxGeometry relative="1" as="geometry" />
        </mxCell>
        <mxCell id="jXdwk9JwkKEWe-Lg2wPp-26" style="edgeStyle=orthogonalEdgeStyle;rounded=0;orthogonalLoop=1;jettySize=auto;html=1;exitX=0.5;exitY=1;exitDx=0;exitDy=0;entryX=1;entryY=0.5;entryDx=0;entryDy=0;entryPerimeter=0;" edge="1" parent="jXdwk9JwkKEWe-Lg2wPp-1" source="jXdwk9JwkKEWe-Lg2wPp-10" target="jXdwk9JwkKEWe-Lg2wPp-11">
          <mxGeometry relative="1" as="geometry" />
        </mxCell>
        <mxCell id="jXdwk9JwkKEWe-Lg2wPp-51" style="edgeStyle=orthogonalEdgeStyle;rounded=0;orthogonalLoop=1;jettySize=auto;html=1;exitX=1;exitY=0.5;exitDx=0;exitDy=0;exitPerimeter=0;entryX=0;entryY=0.5;entryDx=0;entryDy=0;fontSize=14;" edge="1" parent="jXdwk9JwkKEWe-Lg2wPp-1" source="jXdwk9JwkKEWe-Lg2wPp-17" target="jXdwk9JwkKEWe-Lg2wPp-15">
          <mxGeometry relative="1" as="geometry" />
        </mxCell>
        <mxCell id="jXdwk9JwkKEWe-Lg2wPp-55" style="edgeStyle=orthogonalEdgeStyle;rounded=0;orthogonalLoop=1;jettySize=auto;html=1;exitX=1;exitY=0.5;exitDx=0;exitDy=0;exitPerimeter=0;entryX=0.5;entryY=0;entryDx=0;entryDy=0;fontSize=14;" edge="1" parent="jXdwk9JwkKEWe-Lg2wPp-1" source="jXdwk9JwkKEWe-Lg2wPp-14" target="jXdwk9JwkKEWe-Lg2wPp-13">
          <mxGeometry relative="1" as="geometry" />
        </mxCell>
        <mxCell id="jXdwk9JwkKEWe-Lg2wPp-58" style="edgeStyle=orthogonalEdgeStyle;rounded=0;orthogonalLoop=1;jettySize=auto;html=1;exitX=1;exitY=0.5;exitDx=0;exitDy=0;exitPerimeter=0;entryX=0;entryY=0.5;entryDx=0;entryDy=0;fontSize=14;" edge="1" parent="jXdwk9JwkKEWe-Lg2wPp-1" source="jXdwk9JwkKEWe-Lg2wPp-28" target="jXdwk9JwkKEWe-Lg2wPp-13">
          <mxGeometry relative="1" as="geometry">
            <Array as="points">
              <mxPoint x="400" y="470" />
              <mxPoint x="400" y="430" />
            </Array>
          </mxGeometry>
        </mxCell>
      </root>
    </mxGraphModel>
  </diagram>
</mxfile>
